<svg width="18" height="15" viewBox="0 0 18 15" fill="none" xmlns="http://www.w3.org/2000/svg">
<path fill-rule="evenodd" clip-rule="evenodd" d="M18 13.0999C18 13.6418 17.4801 14.0811 16.8387 14.0811L1.16129 14.0811C0.519928 14.0811 -6.78526e-08 13.6418 -4.37114e-08 13.0999C-1.95703e-08 12.558 0.519928 12.1187 1.16129 12.1187L16.8387 12.1187C17.4801 12.1187 18 12.558 18 13.0999Z" fill="#343C6A"/>
<path fill-rule="evenodd" clip-rule="evenodd" d="M18 7.21269C18 7.75462 17.5523 8.19394 17 8.19394L1 8.19394C0.447716 8.19394 -6.78525e-08 7.75462 -4.37114e-08 7.21269C-1.95703e-08 6.67076 0.447716 6.23144 1 6.23144L17 6.23145C17.5523 6.23145 18 6.67076 18 7.21269Z" fill="#343C6A"/>
<path fill-rule="evenodd" clip-rule="evenodd" d="M18 1.32499C18 1.86692 17.4801 2.30624 16.8387 2.30624L1.16129 2.30624C0.519928 2.30624 -6.78526e-08 1.86692 -4.37115e-08 1.325C-1.95704e-08 0.783072 0.519928 0.343754 1.16129 0.343754L16.8387 0.34375C17.4801 0.34375 18 0.783067 18 1.32499Z" fill="#343C6A"/>
</svg>
