<svg width="16" height="16" viewBox="0 0 16 16" fill="none" xmlns="http://www.w3.org/2000/svg">
<path fill-rule="evenodd" clip-rule="evenodd" d="M14.364 1.61719C14.7472 2.00039 14.6902 2.67867 14.2367 3.13219L3.15109 14.2178C2.69758 14.6713 2.01929 14.7283 1.63609 14.3451C1.25289 13.9619 1.30989 13.2836 1.7634 12.8301L12.849 1.7445C13.3025 1.29098 13.9808 1.23398 14.364 1.61719Z" fill="#343C6A"/>
<path fill-rule="evenodd" clip-rule="evenodd" d="M14.4219 14.4219C14.0387 14.8051 13.4114 14.7991 13.0209 14.4086L1.70722 3.0949C1.31669 2.70438 1.31076 2.07715 1.69396 1.69395C2.07716 1.31075 2.70438 1.31669 3.09491 1.70721L14.4086 13.0209C14.7991 13.4114 14.8051 14.0387 14.4219 14.4219Z" fill="#343C6A"/>
</svg>
