<svg width="26" height="26" viewBox="0 0 26 26" fill="none" xmlns="http://www.w3.org/2000/svg">
<g clip-path="url(#clip0_117_29)">
<path d="M22.9608 7.16318V6.80751C22.9608 5.1725 21.6306 3.84229 19.9956 3.84229H2.96522C1.33016 3.84234 0 5.1725 0 6.80751V7.16318H22.9608Z" fill="#B1B1B1"/>
<path d="M13.5651 16.7015C13.5651 15.1634 14.0598 13.7014 14.9731 12.4966H0V16.6328C0 18.2678 1.33016 19.598 2.96522 19.598H14.1911C13.7813 18.7004 13.5651 17.7177 13.5651 16.7015V16.7015ZM11.4804 15.8027H8.92125V14.2793H11.4804V15.8027ZM3.41545 14.2793H7.39781V15.8027H3.41545V14.2793Z" fill="#B1B1B1"/>
<path d="M16.5547 10.9731C17.7165 10.1602 19.0967 9.72226 20.5443 9.72226C21.3822 9.72226 22.1973 9.86937 22.9608 10.1505V8.68652H0V10.9731H16.5547Z" fill="#B1B1B1"/>
<path d="M26 16.7013C26 13.6882 23.5573 11.2456 20.5442 11.2456C17.5311 11.2456 15.0885 13.6882 15.0885 16.7013C15.0885 19.7144 17.5311 22.157 20.5442 22.157C23.5573 22.157 26 19.7144 26 16.7013ZM21.2796 19.6159V20.2359H20.5179V20.2359V20.2359H19.7562V19.6205C19.2957 19.4645 18.9189 19.1901 18.5509 18.921L19.4503 17.6914C19.9446 18.0529 20.1976 18.2267 20.5442 18.2267C20.7402 18.2267 20.8989 18.1334 20.9585 17.9833C21.0305 17.8015 20.9287 17.634 20.6861 17.5352C20.6861 17.5352 19.5973 17.1721 19.0939 16.6588C18.6715 16.2283 18.5372 15.6215 18.6716 15.0442C18.807 14.4631 19.1994 14.0086 19.7562 13.7817V13.1666H21.2796V13.7562C21.6665 13.8636 21.994 14.0224 22.1823 14.1246L21.4555 15.4635C20.9736 15.2019 20.5303 15.1234 20.3577 15.1824C20.1903 15.2396 20.1648 15.3488 20.1552 15.3899C20.1417 15.4482 20.1344 15.5375 20.2276 15.6413C20.3172 15.7412 21.2605 16.1243 21.2605 16.1243C22.2782 16.5386 22.7572 17.579 22.3747 18.5444C22.176 19.0462 21.776 19.4262 21.2796 19.6159V19.6159Z" fill="#B1B1B1"/>
</g>
<defs>
<clipPath id="clip0_117_29">
<rect width="26" height="26" fill="white"/>
</clipPath>
</defs>
</svg>
