<svg width="30" height="30" viewBox="0 0 30 30" fill="none" xmlns="http://www.w3.org/2000/svg">
<circle cx="15" cy="15" r="15" fill="#1814F3"/>
<g clip-path="url(#clip0_117_91)">
<path d="M22.5871 11.1633L21.2365 12.5139C21.0988 12.6516 20.8761 12.6516 20.7384 12.5139L17.4865 9.26196C17.3488 9.12427 17.3488 8.90161 17.4865 8.76392L18.8371 7.41333C19.3849 6.86548 20.2756 6.86548 20.8263 7.41333L22.5871 9.17407C23.1379 9.72192 23.1379 10.6125 22.5871 11.1633ZM16.3263 9.92407L8.63297 17.6174L8.01188 21.177C7.92692 21.6575 8.34586 22.0735 8.82633 21.9915L12.3859 21.3674L20.0793 13.6741C20.217 13.5364 20.217 13.3137 20.0793 13.176L16.8273 9.92407C16.6867 9.78638 16.464 9.78638 16.3263 9.92407ZM11.6359 16.9583C11.4748 16.7971 11.4748 16.5393 11.6359 16.3782L16.1476 11.8665C16.3088 11.7053 16.5666 11.7053 16.7277 11.8665C16.8888 12.0276 16.8888 12.2854 16.7277 12.4465L12.216 16.9583C12.0548 17.1194 11.797 17.1194 11.6359 16.9583ZM10.5783 19.4221H11.9845V20.4856L10.0949 20.8167L9.18375 19.9055L9.51481 18.0159H10.5783V19.4221Z" fill="white"/>
</g>
<defs>
<clipPath id="clip0_117_91">
<rect width="15" height="15" fill="white" transform="translate(8 7)"/>
</clipPath>
</defs>
</svg>
