<svg width="25" height="25" viewBox="0 0 25 25" fill="none" xmlns="http://www.w3.org/2000/svg">
<g clip-path="url(#clip0_117_46)">
<path d="M5.20825 22.9168C5.20891 23.4692 5.42861 23.9987 5.81917 24.3892C6.20973 24.7798 6.73925 24.9995 7.29159 25.0002H17.7083C18.2606 24.9995 18.7901 24.7798 19.1807 24.3892C19.5712 23.9987 19.7909 23.4692 19.7916 22.9168V22.0054H5.20825V22.9168Z" fill="#B1B1B1"/>
<path d="M19.7916 2.08333C19.7909 1.531 19.5712 1.00148 19.1807 0.610917C18.7901 0.220358 18.2606 0.00065473 17.7083 0L7.29159 0C6.73925 0.00065473 6.20973 0.220358 5.81917 0.610917C5.42861 1.00148 5.20891 1.531 5.20825 2.08333V3.125H19.7916V2.08333Z" fill="#B1B1B1"/>
<path d="M24.7097 6.70052L21.5847 3.44531L20.0819 4.88802L21.3893 6.25H19.7916V8.33333H21.5017L20.1126 9.66459L21.554 11.1688L24.679 8.17396C24.7778 8.07926 24.857 7.96602 24.912 7.8407C24.9671 7.71538 24.9968 7.58045 24.9997 7.44361C25.0026 7.30677 24.9784 7.17071 24.9287 7.04321C24.8789 6.91571 24.8045 6.79926 24.7097 6.70052Z" fill="#B1B1B1"/>
<path d="M16.6666 6.24984H19.7916V4.1665H5.20825V16.6665H8.33325V18.7498H5.20825V20.8332H19.7916V8.33317H16.6666V6.24984ZM15.6249 10.4165H11.9791C11.841 10.4165 11.7085 10.4714 11.6108 10.5691C11.5131 10.6667 11.4583 10.7992 11.4583 10.9373C11.4583 11.0755 11.5131 11.2079 11.6108 11.3056C11.7085 11.4033 11.841 11.4582 11.9791 11.4582H13.0208C13.6666 11.4575 14.2896 11.6969 14.7688 12.1297C15.2481 12.5626 15.5494 13.1581 15.6144 13.8006C15.6793 14.4432 15.5031 15.0869 15.1201 15.6069C14.737 16.1268 14.1745 16.4859 13.5416 16.6144V17.7082H11.4583V16.6665H9.37492V14.5832H13.0208C13.1589 14.5832 13.2914 14.5283 13.389 14.4306C13.4867 14.3329 13.5416 14.2005 13.5416 14.0623C13.5416 13.9242 13.4867 13.7917 13.389 13.6941C13.2914 13.5964 13.1589 13.5415 13.0208 13.5415H11.9791C11.3333 13.5422 10.7103 13.3028 10.231 12.87C9.75173 12.4371 9.45039 11.8416 9.38549 11.1991C9.32058 10.5565 9.49674 9.91278 9.87977 9.39282C10.2628 8.87286 10.8254 8.51377 11.4583 8.38525V7.2915H13.5416V8.33317H15.6249V10.4165Z" fill="#B1B1B1"/>
<path d="M3.49827 16.6665L4.88734 15.3352L3.44593 13.8311L0.320931 16.8258C0.222115 16.9205 0.142929 17.0338 0.0879011 17.1591C0.0328728 17.2844 0.00308028 17.4194 0.000226477 17.5562C-0.00262733 17.693 0.0215135 17.8291 0.0712692 17.9566C0.121025 18.0841 0.19542 18.2005 0.290202 18.2993L3.4152 21.5545L4.91807 20.1118L3.61064 18.7498H5.2083V16.6665H3.49827Z" fill="#B1B1B1"/>
</g>
<defs>
<clipPath id="clip0_117_46">
<rect width="25" height="25" fill="white"/>
</clipPath>
</defs>
</svg>
